<svg width="82" height="51" viewBox="0 0 82 51" fill="none" xmlns="http://www.w3.org/2000/svg">
<path d="M-12 25.5V51H39.5H91V25.5V0H39.5H-12V25.5Z" fill="white"/>
<path d="M5.51494 7.28975L5.20312 7.58145V11.6753V15.7691L5.49482 16.0608C5.70605 16.262 5.9374 16.3727 6.24922 16.4129C6.50068 16.4531 7.18467 16.4632 7.76807 16.433C8.83428 16.3827 8.84434 16.3827 9.15615 16.0407L9.47803 15.6987L9.52832 13.4355L9.57861 11.1724L10.9667 11.2025C12.0832 11.2227 12.4755 11.2729 12.9181 11.4439C13.2299 11.5546 13.6926 11.8161 13.9541 12.0273C14.276 12.2788 14.5576 12.6409 14.8091 13.1137C15.1209 13.7071 15.1913 13.9485 15.2315 14.6124C15.2718 15.2863 15.2416 15.4976 15.0203 16.0608C14.8694 16.4632 14.5878 16.9259 14.3062 17.2377C14.0044 17.5696 13.6021 17.8714 13.1695 18.0826L12.5057 18.4146L9.14609 18.4648L5.78652 18.5151L5.49482 18.8471L5.20312 19.1689V20.5771V21.9854L5.49482 22.3072L5.78652 22.6392L8.91475 22.6693C11.3087 22.6794 12.2643 22.6492 12.9985 22.5386C13.5518 22.448 14.2961 22.2469 14.7588 22.0558C15.2114 21.8646 15.9356 21.4422 16.4185 21.07C16.9717 20.6576 17.5048 20.1446 17.887 19.6417C18.2793 19.1488 18.6515 18.5051 18.913 17.8915C19.2449 17.0969 19.3455 16.7046 19.4662 15.7088C19.607 14.5521 19.607 14.4313 19.4159 13.3953C19.265 12.6107 19.094 12.0575 18.7722 11.3836C18.4101 10.6292 18.1586 10.2872 17.374 9.4624C16.519 8.56719 16.3078 8.39619 15.3925 7.9335C14.8191 7.6418 13.9943 7.30986 13.5518 7.19922C12.8275 7.01816 12.4151 6.99805 9.28691 6.99805H5.82676L5.51494 7.28975Z" fill="#FF922E"/>
<path d="M26.6873 7.20928C26.4861 7.36016 25.7016 9.10029 23.4082 14.4213C21.7485 18.2737 20.3906 21.5528 20.3906 21.7037C20.3906 21.8646 20.5113 22.1161 20.6823 22.3072L20.974 22.6392H22.684C24.3034 22.6392 24.4141 22.6291 24.7058 22.4078C24.9572 22.2268 25.2892 21.5126 26.808 17.9016L28.6085 13.6166L29.0913 14.7633C29.3629 15.3869 30.1575 17.2779 30.8717 18.9678C31.787 21.1404 32.2497 22.1262 32.4609 22.3374L32.7627 22.6392H34.533H36.3033L36.595 22.3072C36.766 22.1161 36.8867 21.8646 36.8867 21.7037C36.8867 21.5528 35.5288 18.2838 33.8691 14.4414C31.777 9.60322 30.7711 7.38027 30.59 7.22939C30.3486 7.00811 30.2581 6.99805 28.6487 6.99805C27.0896 6.99805 26.9388 7.01816 26.6873 7.20928Z" fill="#FF922E"/>
<path d="M35.7884 7.25957L35.4766 7.52109V9.07012C35.4766 10.589 35.4866 10.6393 35.718 10.8706C35.899 11.0517 36.1103 11.1321 36.5227 11.1724C36.8345 11.2025 39.6006 11.2126 42.6785 11.2025L48.2711 11.1724L48.5729 10.8404L48.8646 10.4984L48.8344 8.97959L48.8042 7.45068L48.5226 7.22939L48.2409 6.99805H42.1655H36.1002L35.7884 7.25957Z" fill="#FF922E"/>
<path d="M53.6404 7.20928C53.4393 7.37021 52.6748 9.06006 50.3613 14.4313C48.7017 18.2938 47.3438 21.5729 47.3438 21.7138C47.3438 21.8646 47.4745 22.1262 47.6354 22.3072L47.9271 22.6392H49.6371C51.1861 22.6392 51.3772 22.619 51.6388 22.438C51.8701 22.2771 52.2322 21.4925 53.6706 18.0625C54.6262 15.7691 55.4409 13.8479 55.4812 13.8077C55.5214 13.7675 56.0847 14.9645 56.7284 16.4732C57.3722 17.982 58.1769 19.9032 58.5289 20.728C59.1123 22.1161 59.1928 22.2569 59.5549 22.4682C59.9371 22.6895 60.0276 22.6995 61.5565 22.6693L63.1559 22.6392L63.4476 22.3072C63.6286 22.1061 63.7393 21.8747 63.7393 21.6735C63.7393 21.5025 62.5825 18.6962 60.9832 15.0147C59.4744 11.5144 58.1064 8.35596 57.9656 7.97373C57.7645 7.48086 57.6136 7.25957 57.4023 7.14893C57.1811 7.03828 56.7284 6.99805 55.5113 6.99805C54.0327 6.99805 53.8919 7.01816 53.6404 7.20928Z" fill="#FF922E"/>
<path d="M41.7948 13.033C40.5878 13.0833 40.4973 13.0933 40.286 13.3347L40.0547 13.5862V17.8108V22.0354L40.3363 22.3372L40.6079 22.6389L42.0061 22.6691C43.1527 22.6993 43.4646 22.6792 43.7261 22.5383C43.9071 22.4478 44.1083 22.2265 44.1888 22.0254C44.3095 21.7337 44.3296 20.9893 44.3095 17.68L44.2793 13.6868L43.9977 13.3649C43.8166 13.1738 43.5853 13.043 43.3941 13.0129C43.2131 13.0028 42.4989 13.0028 41.7948 13.033Z" fill="#FF922E"/>
<path d="M24.6368 26.4919C24.3351 26.6629 24.0031 26.9646 23.8422 27.206C23.631 27.538 23.5606 27.7794 23.5304 28.3024C23.4901 28.9059 23.5203 29.0367 23.7718 29.4793C23.973 29.8213 24.2244 30.0828 24.5564 30.284C24.9889 30.5455 25.1498 30.5857 25.7634 30.5857C26.3669 30.5857 26.558 30.5455 26.9704 30.294C27.3325 30.0828 27.5236 29.8715 27.7449 29.4591C27.9562 29.0568 28.0366 28.7651 28.0366 28.3829C28.0366 28.0409 27.9461 27.709 27.7852 27.3971C27.6343 27.0954 27.3627 26.7936 27.0811 26.5924C26.6787 26.3108 26.5178 26.2605 25.8841 26.2303C25.2303 26.1901 25.1096 26.2203 24.6368 26.4919Z" fill="#FF922E"/>
<path d="M12.3382 41.9315C12.5896 41.9315 12.8914 41.9215 13.2334 41.8913C14.0079 41.841 14.6818 41.8209 14.712 41.8511L14.7422 41.8712C14.8528 41.831 14.9333 41.7807 15.0439 41.7002C15.3557 41.4688 15.6575 40.805 18.2828 34.5586C20.3146 29.7305 21.1797 27.5578 21.1797 27.2862C21.1897 26.9845 21.1193 26.8336 20.898 26.6022L20.6063 26.3105H18.8964C17.3675 26.3105 17.1663 26.3307 16.945 26.5017C16.764 26.6525 16.2308 27.8495 14.9534 30.9878C13.9978 33.3415 13.1831 35.2325 13.1429 35.1923C13.1127 35.1521 12.3181 33.2309 11.3927 30.9375C10.256 28.1412 9.62235 26.6928 9.45135 26.5419C9.22 26.3206 9.12948 26.3105 7.51004 26.3105H5.80008L5.47821 26.5922C5.24686 26.8034 5.15633 26.9744 5.15633 27.2259C5.14627 27.4572 6.06161 29.7204 8.09344 34.5083C9.72293 38.3306 11.111 41.5292 11.1915 41.6298C11.272 41.7203 11.443 41.841 11.5737 41.8913C11.6642 41.9315 11.9358 41.9416 12.3382 41.9315Z" fill="#403685"/>
<path d="M30.6985 27.769C30.6985 27.9903 30.7186 28.2519 30.7388 28.5737C30.7891 29.3482 30.7991 30.9979 30.7689 32.2451C30.7488 32.8688 30.7287 33.8042 30.7086 34.8101C30.6985 35.826 30.6784 36.9224 30.6684 37.8478C30.6382 40.7145 30.6583 41.2274 30.7991 41.489C30.8997 41.7002 31.0707 41.831 31.3322 41.9114C31.5736 41.9818 32.2375 42.012 33.0422 41.9919C34.3599 41.9517 34.3699 41.9517 34.6415 41.6499L34.9231 41.3481L34.9533 35.9467L34.9835 30.5352H36.9248C38.8359 30.5352 38.8762 30.5352 39.2483 30.7866C39.4696 30.9476 39.6809 31.199 39.7714 31.4404C39.8921 31.7321 39.9021 31.9333 39.8418 32.1646C39.7915 32.3457 39.5803 32.6475 39.3791 32.8285C39.017 33.1403 38.9768 33.1504 38.1419 33.1504C37.6289 33.1504 37.1461 33.2107 36.9449 33.2912C36.7639 33.3717 36.5325 33.5326 36.442 33.6634C36.3112 33.8646 36.2811 34.1864 36.2911 35.6147L36.3012 37.3247L37.7697 39.4873C38.3531 40.3322 38.8862 41.0665 39.2182 41.4789L39.5602 41.6398C39.9323 41.8008 40.1938 41.8209 41.7127 41.7907L43.3724 41.7505C43.4629 41.6901 43.5333 41.6197 43.5836 41.5594C43.6641 41.4487 43.7244 41.1872 43.7244 40.9659C43.7244 40.634 43.5333 40.3021 42.3967 38.6223C41.3707 37.1135 41.0991 36.6407 41.2098 36.5904C41.2902 36.5502 41.6825 36.2686 42.0647 35.9668C42.5677 35.5745 42.8895 35.2124 43.2114 34.6994C43.5534 34.1361 43.6942 33.7539 43.8652 32.9794C44.0563 32.0842 44.0664 31.9031 43.9558 31.1487C43.8853 30.686 43.7043 30.0121 43.5534 29.6399C43.3925 29.2778 43.0203 28.6844 42.7286 28.3223C42.4269 27.9602 41.8837 27.4572 41.5216 27.2058C41.1092 26.9241 40.5761 26.6626 40.1134 26.5318C39.4093 26.3206 39.1779 26.3105 35.406 26.3105C32.1369 26.3105 31.3926 26.3407 31.1612 26.4614C31.0003 26.5419 30.8293 26.733 30.7589 26.8839C30.7086 27.0247 30.6784 27.2862 30.6985 27.769Z" fill="#403685"/>
<path d="M47.0469 41.9014H51.7241H56.4014L56.7031 41.5996L57.0049 41.2979V39.8796V38.4613L56.6629 38.1193L56.3209 37.7773H53.4441H50.5674V37.0028V36.2283L51.4425 36.178C51.6638 36.1579 52.0158 36.1579 52.4282 36.1579L54.5305 36.0573L56.6327 36.007L56.6629 35.9869C56.683 35.9769 56.7635 35.836 56.854 35.665C56.9646 35.4438 57.0049 35.0414 57.0049 34.0657C57.0049 32.7581 57.0049 32.748 56.7132 32.4262L56.4215 32.0942L53.4743 32.0439L50.5372 31.9937L50.5473 31.2594L50.5674 30.5251L50.6076 30.4748C50.6277 30.4547 51.9052 30.4346 53.4441 30.4547L56.2505 30.4748L56.3712 30.4547C56.4315 30.4446 56.6025 30.2938 56.7434 30.1228C56.9948 29.821 57.0049 29.7808 57.0049 28.3524V26.8939L56.7132 26.6022L56.4215 26.3105H51.6235H46.8256L46.5339 26.6022L46.2422 26.8939V34.0858V41.2777L46.5037 41.5896C46.6445 41.7605 46.8256 41.9014 46.9061 41.9014H47.0469Z" fill="#403685"/>
<path d="M60.3223 41.9517L61.8512 41.8511C62.6961 41.8209 63.3398 41.831 63.2996 41.8712C63.2795 41.8913 63.0984 41.9114 62.8369 41.9315L65.0297 41.9818C66.8201 41.9517 67.3532 41.9114 68.0171 41.7505C68.4597 41.6398 69.2744 41.318 69.8276 41.0363C70.582 40.6541 71.0246 40.3423 71.5678 39.8092C72.0104 39.3867 72.5032 38.7731 72.805 38.2702C73.1067 37.7572 73.4387 37.0229 73.6298 36.4194C73.8209 35.7958 73.8913 35.5041 73.9215 35.0112L73.9014 34.2065L73.9215 33.4019C73.8913 32.8889 73.831 32.5268 73.7103 32.0942C73.5896 31.6517 73.2576 30.857 72.976 30.334C72.5435 29.5394 72.292 29.2275 71.4974 28.4731C70.8436 27.8495 70.3306 27.4572 69.8377 27.2158C69.4454 27.0247 68.681 26.7431 68.1277 26.5922L67.1319 26.3105H63.7221H60.3021L60.0104 26.6022L59.7188 26.8939V30.9878V35.0816L60.0607 35.4236L60.4027 35.7656H61.821H63.2393L63.6215 35.4437L63.9937 35.1118L64.0238 32.8285L64.054 30.5352H65.3516C66.3876 30.5352 66.7799 30.5754 67.2627 30.7363C67.7354 30.8973 68.007 31.0783 68.51 31.5712C68.9727 32.0238 69.2141 32.3658 69.3851 32.7983C69.5762 33.2711 69.6265 33.5829 69.6164 34.2468C69.6164 35.0213 69.5862 35.1319 69.2141 35.8059C68.9324 36.3088 68.6608 36.6508 68.2484 36.9727C67.9266 37.2342 67.4438 37.5058 67.1219 37.6063C66.6391 37.7572 66.1261 37.7773 63.4807 37.7773H60.4027L60.0607 38.1193L59.7188 38.4613V39.9198C59.7188 41.328 59.7288 41.3984 59.9602 41.67L60.2016 41.9517H60.3223Z" fill="#403685"/>
<path d="M30.6965 27.7695L30.6562 31.29L30.7065 34.8105C30.7267 33.8047 30.7468 32.8692 30.7669 32.2456C30.7971 30.9983 30.787 29.3487 30.7367 28.5742C30.7166 28.2523 30.6965 27.9908 30.6965 27.7695Z" fill="#403685"/>
<path d="M50.5625 30.525L53.4091 30.4949L56.2456 30.4747L53.4393 30.4546C51.9003 30.4345 50.6229 30.4546 50.6027 30.4747L50.5625 30.525Z" fill="#403685"/>
<path d="M50.46 31.189C50.46 30.8269 50.4398 30.5352 50.4097 30.5352C50.3795 30.5352 50.3594 30.8269 50.3594 31.189C50.3594 31.5511 50.3795 31.8428 50.4097 31.8428C50.4398 31.8428 50.46 31.5511 50.46 31.189Z" fill="#403685"/>
<path d="M25.4062 32.1952L26.3216 32.2455L27.2771 32.2958C27.1766 32.2455 27.076 32.2053 26.9955 32.1952C26.7843 32.155 26.1003 32.155 25.4565 32.1952C25.4364 32.1952 25.4163 32.1952 25.4062 32.1952Z" fill="#403685"/>
<path d="M25.4075 32.1953C24.4821 32.2557 24.2508 32.306 24.0295 32.487L23.7579 32.6982V33.5331L23.7479 36.8223L23.6875 40.4434V40.9463C23.6875 41.0569 23.6976 41.1273 23.7076 41.1676C23.778 41.4492 23.8987 41.6504 24.0798 41.7711C24.1703 41.8314 24.291 41.8817 24.4721 41.9119L25.7596 41.9521L27.0471 41.932C27.1275 41.9119 27.208 41.8918 27.2684 41.8616C27.4896 41.7711 27.7009 41.58 27.7914 41.409C27.9121 41.1676 27.9322 40.4434 27.9121 36.9631L27.8819 32.7988L27.6204 32.5272C27.5399 32.4468 27.4092 32.3563 27.2784 32.2959L26.3229 32.2456L25.4075 32.1953Z" fill="#403685"/>
<path d="M73.9186 35.0117C73.9286 34.7904 73.9387 34.5188 73.9286 34.1567C73.9286 33.865 73.9286 33.6236 73.9186 33.4023L73.8984 34.207L73.9186 35.0117Z" fill="#403685"/>
<path d="M23.7568 33.5322L23.6864 34.357C23.6764 34.528 23.6663 34.8398 23.6562 35.2422L23.7065 37.8272L23.6864 40.4425L23.7468 36.8214L23.7568 33.5322Z" fill="#403685"/>
<path d="M23.6876 40.4425L23.7077 37.8272L23.6574 35.2422C23.6373 35.9765 23.6172 37.0024 23.6172 37.9781C23.6172 39.2354 23.6474 40.4425 23.6876 40.9454V40.4425Z" fill="#403685"/>
<path d="M52.4219 36.1577C52.6432 36.1577 52.8846 36.1577 53.126 36.1678C53.468 36.1678 53.8301 36.1778 54.162 36.1979C55.5903 36.2482 56.0631 36.2382 56.3045 36.1376L56.6264 36.0068L54.5241 36.0571L52.4219 36.1577Z" fill="#403685"/>
<path d="M50.5625 36.2286H51.8399L53.1274 36.1683C52.886 36.1582 52.6446 36.1582 52.4233 36.1582C52.0109 36.1582 51.6589 36.1582 51.4376 36.1783L50.5625 36.2286Z" fill="#403685"/>
<path d="M39.2188 41.4785C39.3696 41.6696 39.4803 41.7903 39.5406 41.8306C39.782 41.9714 40.0737 42.0016 41.3713 42.0016C42.4073 42.0016 43.0108 41.9613 43.1818 41.8708C43.2422 41.8406 43.3126 41.8004 43.3729 41.7501L41.7133 41.7903C40.1944 41.8205 39.9329 41.8004 39.5607 41.6395L39.2188 41.4785Z" fill="#403685"/>
<path d="M12.3438 41.9316L13.5307 41.9819C14.2448 41.9617 14.5365 41.9416 14.7478 41.8712L14.7176 41.8511C14.6874 41.8209 14.0135 41.841 13.239 41.8913C12.897 41.9215 12.5952 41.9316 12.3438 41.9316Z" fill="#403685"/>
<path d="M24.4688 41.9111C24.7001 41.9514 25.0521 41.9715 25.6255 41.9815C26.3698 42.0017 26.7722 41.9916 27.0438 41.9312L25.7563 41.9514L24.4688 41.9111Z" fill="#403685"/>
<path d="M60.3203 41.9521H61.7084C62.1409 41.9521 62.5433 41.9421 62.835 41.932C63.0965 41.9119 63.2775 41.8918 63.2977 41.8716C63.3379 41.8314 62.6941 41.8214 61.8492 41.8515L60.3203 41.9521Z" fill="#403685"/>
</svg>
